<svg width="24" height="24" viewBox="0 0 24 24" fill="none" xmlns="http://www.w3.org/2000/svg">
<g id="Group">
<g id="Group_2">
<path id="Vector" d="M21 10.4796V19.3685C21 20.2574 20.2317 21.0352 19.3537 21.0352H16.061C15.1829 21.0352 14.4146 20.2574 14.4146 19.3685V16.1462C14.4146 14.8129 13.317 13.7018 12 13.7018C10.6829 13.7018 9.58538 14.8129 9.58538 16.1462V19.3685C9.58538 20.2574 8.81709 21.0352 7.93904 21.0352H4.64635C3.76829 21.0352 3 20.2574 3 19.3685V10.4796C3 9.92406 3.21949 9.47961 3.65851 9.14627L11.1219 3.36849C11.6707 2.92405 12.5487 2.92405 13.0975 3.36849L20.561 9.14627C20.7805 9.47961 21 9.92406 21 10.4796Z" fill="#078FCD"/>
</g>
</g>
</svg>
