<svg width="14" height="16" viewBox="0 0 14 16" fill="none" xmlns="http://www.w3.org/2000/svg">
<path d="M6.53904 0C4.80541 0.00195296 3.14337 0.660438 1.9175 1.83101C0.691641 3.00158 0.00205217 4.58865 6.95687e-06 6.24409C-0.00206942 7.59691 0.4607 8.91303 1.31732 9.99054C1.31732 9.99054 1.49566 10.2148 1.52479 10.2471L6.53904 15.894L11.5557 10.2443C11.5818 10.2142 11.7608 9.99054 11.7608 9.99054L11.7613 9.98884C12.6175 8.9118 13.0801 7.59629 13.0781 6.24409C13.076 4.58865 12.3864 3.00158 11.1606 1.83101C9.93471 0.660438 8.27267 0.00195296 6.53904 0ZM6.53904 8.51466C6.06875 8.51466 5.60902 8.3815 5.21799 8.132C4.82696 7.88251 4.52218 7.52789 4.34221 7.113C4.16224 6.69811 4.11515 6.24157 4.2069 5.80112C4.29865 5.36067 4.52511 4.95609 4.85766 4.63855C5.1902 4.321 5.61389 4.10475 6.07515 4.01714C6.5364 3.92953 7.0145 3.97449 7.449 4.14635C7.88349 4.3182 8.25485 4.60923 8.51613 4.98262C8.77741 5.35602 8.91687 5.79501 8.91687 6.24409C8.91608 6.84605 8.66531 7.42314 8.21955 7.8488C7.77379 8.27445 7.16944 8.51391 6.53904 8.51466Z" fill="#002D42"/>
</svg>
